<mxfile host="app.diagrams.net" agent="Mozilla/5.0 (Windows NT 10.0; Win64; x64) AppleWebKit/537.36 (KHTML, like Gecko) Chrome/134.0.0.0 Safari/537.36" version="26.1.1">
  <diagram id="BlpK0lsus8-FVPDIkiNz" name="图书管理用例">
    <mxGraphModel dx="996" dy="755" grid="1" gridSize="10" guides="1" tooltips="1" connect="1" arrows="1" fold="1" page="1" pageScale="1" pageWidth="827" pageHeight="1169" math="0" shadow="0">
      <root>
        <mxCell id="0" />
        <mxCell id="1" parent="0" />
        <mxCell id="PWd2fFFo5y_yB-qkOp8K-1" value="图书管理员" style="shape=umlActor;verticalLabelPosition=bottom;verticalAlign=top;html=1;" vertex="1" parent="1">
          <mxGeometry x="80" y="230" width="30" height="60" as="geometry" />
        </mxCell>
        <mxCell id="PWd2fFFo5y_yB-qkOp8K-19" value="删除图书" style="ellipse;whiteSpace=wrap;html=1;" vertex="1" parent="1">
          <mxGeometry x="344" y="80" width="140" height="70" as="geometry" />
        </mxCell>
        <mxCell id="PWd2fFFo5y_yB-qkOp8K-20" value="修改图书信息" style="ellipse;whiteSpace=wrap;html=1;" vertex="1" parent="1">
          <mxGeometry x="344" y="220" width="140" height="70" as="geometry" />
        </mxCell>
        <mxCell id="PWd2fFFo5y_yB-qkOp8K-21" value="新增图书信息" style="ellipse;whiteSpace=wrap;html=1;" vertex="1" parent="1">
          <mxGeometry x="260" y="410" width="140" height="70" as="geometry" />
        </mxCell>
        <mxCell id="PWd2fFFo5y_yB-qkOp8K-22" value="查询图书" style="ellipse;whiteSpace=wrap;html=1;" vertex="1" parent="1">
          <mxGeometry x="640" y="150" width="140" height="70" as="geometry" />
        </mxCell>
        <mxCell id="PWd2fFFo5y_yB-qkOp8K-23" value="" style="endArrow=open;endFill=1;endSize=12;html=1;rounded=0;entryX=0;entryY=0.5;entryDx=0;entryDy=0;" edge="1" parent="1" target="PWd2fFFo5y_yB-qkOp8K-19">
          <mxGeometry width="160" relative="1" as="geometry">
            <mxPoint x="120" y="250" as="sourcePoint" />
            <mxPoint x="310" y="250" as="targetPoint" />
          </mxGeometry>
        </mxCell>
        <mxCell id="PWd2fFFo5y_yB-qkOp8K-24" value="&amp;lt;&amp;lt;include&amp;gt;&amp;gt;" style="endArrow=open;endSize=12;dashed=1;html=1;rounded=0;entryX=0;entryY=0.5;entryDx=0;entryDy=0;" edge="1" parent="1" source="PWd2fFFo5y_yB-qkOp8K-19" target="PWd2fFFo5y_yB-qkOp8K-22">
          <mxGeometry width="160" relative="1" as="geometry">
            <mxPoint x="484" y="115" as="sourcePoint" />
            <mxPoint x="644" y="115" as="targetPoint" />
          </mxGeometry>
        </mxCell>
      </root>
    </mxGraphModel>
  </diagram>
</mxfile>
